HIERARCHY
ROOT Hips
{
	OFFSET -0.001795 -0.223333 0.028219
	CHANNELS 6 Xposition Yposition Zposition Zrotation Yrotation Xrotation 
	JOINT LeftUpLeg
	{
		OFFSET 0.069520 -0.091406 -0.006815
		CHANNELS 3 Zrotation Yrotation Xrotation
		JOINT LeftLeg
		{
			OFFSET 0.034277 -0.375199 -0.004496
			CHANNELS 3 Zrotation Yrotation Xrotation
			JOINT LeftFoot
			{
				OFFSET -0.013596 -0.397961 -0.043693
				CHANNELS 3 Zrotation Yrotation Xrotation
				JOINT LeftToe
				{
					OFFSET 0.026358 -0.055791 0.119288
					CHANNELS 3 Zrotation Yrotation Xrotation
					End Site
					{
						OFFSET 0.000000 0.000000 0.000000
					}
				}
			}
		}
	}
	JOINT RightUpLeg
	{
		OFFSET -0.067670 -0.090522 -0.004320
		CHANNELS 3 Zrotation Yrotation Xrotation
		JOINT RightLeg
		{
			OFFSET -0.038290 -0.382569 -0.008850
			CHANNELS 3 Zrotation Yrotation Xrotation
			JOINT RightFoot
			{
				OFFSET 0.015774 -0.398415 -0.042312
				CHANNELS 3 Zrotation Yrotation Xrotation
				JOINT RightToe
				{
					OFFSET -0.025372 -0.048144 0.123348
					CHANNELS 3 Zrotation Yrotation Xrotation
					End Site
					{
						OFFSET 0.000000 0.000000 0.000000
					}
				}
			}
		}
	}
	JOINT Spine
	{
		OFFSET -0.002533 0.108963 -0.026696
		CHANNELS 3 Zrotation Yrotation Xrotation
		JOINT Spine1
		{
			OFFSET 0.005487 0.135180 0.001092
			CHANNELS 3 Zrotation Yrotation Xrotation
			JOINT Spine2
			{
				OFFSET 0.001457 0.052922 0.025425
				CHANNELS 3 Zrotation Yrotation Xrotation
				JOINT Neck
				{
					OFFSET -0.002778 0.213870 -0.042857
					CHANNELS 3 Zrotation Yrotation Xrotation
					JOINT Head
					{
						OFFSET 0.005152 0.064970 0.051349
						CHANNELS 3 Zrotation Yrotation Xrotation
						End Site
						{
							OFFSET 0.000000 0.000000 0.000000
						}
					}
				}
				JOINT LeftShoulder
				{
					OFFSET 0.078845 0.121749 -0.034090
					CHANNELS 3 Zrotation Yrotation Xrotation
					JOINT LeftArm
					{
						OFFSET 0.090977 0.030469 -0.008868
						CHANNELS 3 Zrotation Yrotation Xrotation
						JOINT LeftForeArm
						{
							OFFSET 0.259612 -0.012772 -0.027456
							CHANNELS 3 Zrotation Yrotation Xrotation
							JOINT LeftHand
							{
								OFFSET 0.249234 0.008986 -0.001171
								CHANNELS 3 Zrotation Yrotation Xrotation
								End Site
								{
									OFFSET 0.000000 0.000000 0.000000
								}
							}
						}
					}
				}
				JOINT RightShoulder
				{
					OFFSET -0.081759 0.118833 -0.038615
					CHANNELS 3 Zrotation Yrotation Xrotation
					JOINT RightArm
					{
						OFFSET -0.096012 0.032551 -0.009143
						CHANNELS 3 Zrotation Yrotation Xrotation
						JOINT RightForeArm
						{
							OFFSET -0.253742 -0.013329 -0.021401
							CHANNELS 3 Zrotation Yrotation Xrotation
							JOINT RightHand
							{
								OFFSET -0.255298 0.007772 -0.005559
								CHANNELS 3 Zrotation Yrotation Xrotation
								End Site
								{
									OFFSET 0.000000 0.000000 0.000000
								}
							}
						}
					}
				}
			}
		}
	}
}
MOTION
Frames: 7
Frame Time: 0.050000
0.000000 0.927305 0.000000 0.403457 10.942749 -2.588397 0.448033 0.306314 4.415372 -3.829508 0.315020 1.921752 2.956588 5.438401 -1.142686 0.000000 0.000000 0.000000 -5.178938 0.251494 -5.718436 3.607099 -1.310546 28.241443 -5.553320 -14.073666 -2.485773 0.000000 0.000000 0.000000 -0.958964 -0.142553 4.068939 2.368565 -1.247008 1.044292 -4.102539 -1.646458 8.436060 3.036952 -0.145618 -17.036664 0.000000 0.000000 0.000000 -26.396282 -14.733695 4.799128 -41.061310 -8.812480 -1.721999 -5.587868 -30.525332 2.440262 0.000000 0.000000 0.000000 25.481369 8.711290 4.826282 49.134579 9.417358 -1.943052 -8.624404 21.227970 -0.517438 0.000000 0.000000 0.000000 
0.006019 0.927359 0.007291 0.210040 12.009496 -2.712973 0.678901 0.390373 6.179053 -4.420311 0.361548 -0.016483 2.330432 4.297648 -0.789909 0.000000 0.000000 0.000000 -4.441690 0.427908 -8.576363 4.037481 -1.968666 32.829498 -7.263506 -18.338071 -0.783084 0.000000 0.000000 0.000000 -0.918184 -0.168500 4.637407 1.938282 -0.882653 -0.622339 -4.214398 -2.592801 10.925129 2.723638 0.269132 -19.686469 0.000000 0.000000 0.000000 -25.243570 -15.832559 5.677900 -41.355938 -9.058945 -1.907777 -4.565402 -31.402352 2.273378 0.000000 0.000000 0.000000 25.171836 8.374377 4.646055 51.541493 10.989587 -1.539561 -10.524165 22.712842 -0.828398 0.000000 0.000000 0.000000 
0.010883 0.929431 0.015362 -0.115948 11.756649 -2.353159 0.054955 0.475908 6.697425 -3.552428 0.298980 -0.899249 2.248511 4.386663 -0.295986 0.000000 0.000000 0.000000 -3.760162 0.691371 -12.591519 5.813741 -2.914899 34.653219 -7.455722 -18.582623 0.025328 0.000000 0.000000 0.000000 -1.389976 -0.145378 4.478352 1.964295 -0.833794 -1.344403 -3.810649 -2.937004 11.919605 0.314504 1.573384 -19.150985 0.000000 0.000000 0.000000 -24.205992 -16.553781 6.343186 -41.664122 -10.322900 -1.683553 -4.249857 -30.411888 2.161085 0.000000 0.000000 0.000000 23.697127 10.691616 5.781276 51.608729 11.032432 -1.476532 -8.524899 22.409065 -0.528690 0.000000 0.000000 0.000000 
0.015495 0.929732 0.025266 -0.402288 12.135372 -2.907605 -0.449465 0.606660 8.178854 -2.850592 0.247847 -1.035912 2.356247 3.515073 -2.313133 0.000000 0.000000 0.000000 -2.839984 0.876739 -14.334068 6.471063 -3.008830 32.006441 -6.915410 -17.333575 -1.425529 0.000000 0.000000 0.000000 -1.478611 -0.178826 5.346117 1.503054 -0.619173 -1.269191 -2.968583 -4.124850 11.703763 -1.678176 2.606905 -18.867163 0.000000 0.000000 0.000000 -24.349864 -17.110284 7.070005 -41.461573 -10.451883 -1.742664 -3.691140 -31.498674 2.148438 0.000000 0.000000 0.000000 23.264096 11.939965 6.110827 52.145545 11.016448 -1.353339 -9.603712 22.847424 -0.774203 0.000000 0.000000 0.000000 
0.019682 0.930037 0.036797 -0.278840 12.805102 -2.288131 -0.795938 0.668962 8.767337 -2.356264 0.220794 -2.085071 1.217459 1.408176 -1.779060 0.000000 0.000000 0.000000 -1.443749 1.154246 -16.125990 6.692745 -2.691373 27.149836 -6.733449 -16.914944 -1.645019 0.000000 0.000000 0.000000 -1.479076 -0.176893 5.352589 2.271249 -1.037428 -0.687343 -4.260376 -4.391818 10.651919 -1.057363 2.193623 -17.638797 0.000000 0.000000 0.000000 -23.467319 -18.035948 7.424412 -41.681526 -11.908566 -1.142358 -2.033804 -29.762882 1.562469 0.000000 0.000000 0.000000 24.490538 12.543907 6.641378 51.593532 11.878700 -0.911069 -10.956054 21.899003 -0.967140 0.000000 0.000000 0.000000 
0.023784 0.928654 0.050497 -0.082241 13.428108 -2.093048 -1.248735 0.753545 9.513220 -1.939093 0.190948 -1.958095 1.173745 1.249277 -1.853826 0.000000 0.000000 0.000000 0.051628 1.358801 -15.996598 6.114634 -2.063625 22.125115 -6.800544 -17.194435 -1.794302 0.000000 0.000000 0.000000 -1.339492 -0.199527 5.751863 2.327306 -1.104834 -0.266618 -4.095772 -5.520612 9.842796 -2.019013 2.650301 -17.273882 0.000000 0.000000 0.000000 -24.588729 -19.082060 8.440641 -40.672394 -12.232244 -1.046301 0.405377 -29.644089 0.959673 0.000000 0.000000 0.000000 25.069014 13.833528 7.132502 50.605599 12.395254 -0.546962 -11.931123 20.935300 -1.120922 0.000000 0.000000 0.000000 
0.028030 0.926159 0.066310 -0.104320 13.866035 -2.296565 -1.878956 0.876421 10.505904 -1.507698 0.154914 -1.536019 1.106465 0.744347 -2.403300 0.000000 0.000000 0.000000 1.585209 1.498341 -14.998293 4.274181 -1.286473 19.574100 -6.503031 -16.400385 -0.426102 0.000000 0.000000 0.000000 -0.900898 -0.244637 6.284342 2.763768 -1.352534 0.058150 -4.731552 -5.573793 9.546062 -1.265884 2.189351 -16.718542 0.000000 0.000000 0.000000 -24.826214 -19.712622 8.732411 -39.474464 -13.788509 -0.480419 1.709588 -27.993440 0.566751 0.000000 0.000000 0.000000 25.517432 14.858023 7.906523 50.491984 13.257557 -0.185475 -13.806311 20.266561 -1.356246 0.000000 0.000000 0.000000 
